# xmcd
#
# Track frame offsets: 
#        150
#        23100
#        49297
#        74122
#        95100
#        114172
#
# Disc length: 1772 seconds
#
# Revision: 0
# Processed by: cddbd v1.4PL0 Copyright (c) Steve Scherf et al.
# Submitted via: ExactAudioCopy v0.90b4
#
DISCID=5306ea06
DTITLE=Ginuwine - The Bachelor Limited Edition CD 2
DYEAR=1998
DGENRE=R&B
TTITLE0=Pony (Ride It Mix)
TTITLE1=Tell Me Do U Wanna (Paleface Remix)
TTITLE2=When Doves Cry (Brooklyn Funk Main Club Mix)
TTITLE3=I'll Do Anything (G-One Mix)
TTITLE4=Holler (Full Crew Phat Mix)
TTITLE5=Only When Ur Lonely (Timbaland Remix)
EXTD=
EXTT0=
EXTT1=
EXTT2=
EXTT3=
EXTT4=
EXTT5=
PLAYORDER=
